<svg width="29" height="30" viewBox="0 0 29 30" fill="none" xmlns="http://www.w3.org/2000/svg">
<path d="M22.7023 23.2026L16.2758 13.2242L12.724 16.776L22.7023 23.2026Z" fill="white"/>
<path d="M6.29756 6.79778L16.2759 13.2243L12.7241 16.7761L6.29756 6.79778Z" fill="white"/>
<path d="M6.29756 23.2025L16.2759 16.7759L12.7241 13.2241L6.29756 23.2025Z" fill="white"/>
<path d="M22.7024 6.79768L16.2758 16.776L12.7241 13.2242L22.7024 6.79768Z" fill="white"/>
<path d="M26.1 14.9999L14.5 12.4884V17.5114L26.1 14.9999Z" fill="white"/>
<path d="M2.90002 14.9999L14.5 12.4884V17.5114L2.90002 14.9999Z" fill="white"/>
<path d="M14.5 26.5999L17.0115 14.9998H11.9885L14.5 26.5999Z" fill="white"/>
<path d="M14.5 3.3999L17.0115 14.9999H11.9885L14.5 3.3999Z" fill="white"/>
</svg>
