<svg width="21" height="22" viewBox="0 0 21 22" fill="none" xmlns="http://www.w3.org/2000/svg">
<path d="M17.2814 18.1582L11.673 9.45023L8.57345 12.5498L17.2814 18.1582Z" fill="white"/>
<path d="M2.96502 3.8418L11.673 9.4502L8.57342 12.5498L2.96502 3.8418Z" fill="white"/>
<path d="M2.96502 18.1582L11.673 12.5498L8.57342 9.45022L2.96502 18.1582Z" fill="white"/>
<path d="M17.2814 3.84179L11.673 12.5498L8.57339 9.45019L17.2814 3.84179Z" fill="white"/>
<path d="M20.2464 11L10.1232 8.80822V13.1917L20.2464 11Z" fill="white"/>
<path d="M0 11L10.1232 8.80822V13.1917L0 11Z" fill="white"/>
<path d="M13.9972 20.3528L12.1481 10.1614L8.09833 11.8389L13.9972 20.3528Z" fill="white"/>
<path d="M6.24923 1.64747L12.1481 10.1614L8.09831 11.8388L6.24923 1.64747Z" fill="white"/>
<path d="M6.24923 20.3528L12.1481 11.8389L8.09831 10.1614L6.24923 20.3528Z" fill="white"/>
<path d="M13.9972 1.64745L12.1481 11.8388L8.09833 10.1613L13.9972 1.64745Z" fill="white"/>
</svg>
