<svg width="100%" height="100%" viewBox="0 0 432 665" fill="none" xmlns="http://www.w3.org/2000/svg" preserveAspectRatio="xMaxYMax [meet]">
<path d="M26.6529 33.5214C22.5752 38.7073 23.085 45.9675 23.085 45.9675C23.085 45.9675 19.7822 35.89 21.5557 30.9285C23.5947 25.224 28.9018 20.2719 37.8665 20.0381C45.0382 19.8511 51.6285 24.7054 51.6285 24.7054C51.6285 24.7054 47.5509 23.6682 40.9247 24.7054C34.2985 25.7426 31.1383 27.8169 26.6529 33.5214Z" fill="#3C305C"/>
<path d="M404.367 33.5214C408.444 38.7073 407.935 45.9675 407.935 45.9675C407.935 45.9675 411.237 35.89 409.464 30.9285C407.425 25.224 402.118 20.2719 393.153 20.0381C385.981 19.8511 379.391 24.7054 379.391 24.7054C379.391 24.7054 383.469 23.6682 390.095 24.7054C396.721 25.7426 399.881 27.8169 404.367 33.5214Z" fill="#3C305C"/>
<path fill-rule="evenodd" clip-rule="evenodd" d="M373.799 23.7603H56.7576V22.7603H373.799V23.7603Z" fill="#3C305C"/>
<path fill-rule="evenodd" clip-rule="evenodd" d="M378.896 642.453H52.6802V641.453H378.896V642.453Z" fill="#3C305C"/>
<path fill-rule="evenodd" clip-rule="evenodd" d="M22.0972 51.2639L22.0972 610.301H21.0972L21.0972 51.2639H22.0972Z" fill="#3C305C"/>
<path fill-rule="evenodd" clip-rule="evenodd" d="M409.479 49.1896V615.487H408.479V49.1896H409.479Z" fill="#3C305C"/>
<path d="M25.6336 628.479C21.5559 623.293 22.0657 616.033 22.0657 616.033C22.0657 616.033 18.7629 626.11 20.5364 631.072C22.5754 636.776 27.8825 641.728 36.8472 641.962C44.0189 642.149 50.6092 637.295 50.6092 637.295C50.6092 637.295 46.5316 638.332 39.9054 637.295C33.2792 636.257 30.119 634.183 25.6336 628.479Z" fill="#3C305C"/>
<path d="M404.289 628.479C408.367 623.293 407.857 616.033 407.857 616.033C407.857 616.033 411.16 626.11 409.386 631.072C407.347 636.776 402.04 641.728 393.075 641.962C385.904 642.149 379.313 637.295 379.313 637.295C379.313 637.295 383.391 638.332 390.017 637.295C396.643 636.257 399.804 634.183 404.289 628.479Z" fill="#3C305C"/>
<path fill-rule="evenodd" clip-rule="evenodd" d="M416 2H16C8.26801 2 2 8.268 2 16V649C2 656.732 8.26801 663 16 663H416C423.732 663 430 656.732 430 649V16C430 8.26801 423.732 2 416 2ZM16 0C7.16344 0 0 7.16343 0 16V649C0 657.837 7.16343 665 16 665H416C424.837 665 432 657.837 432 649V16C432 7.16344 424.837 0 416 0H16Z" fill="#3C305C"/>
</svg>
