<svg width="400" height="630" viewBox="0 0 400 630" fill="none" xmlns="http://www.w3.org/2000/svg">
<rect width="400" height="630" rx="12" fill="black"/>
<path d="M393.214 15.4833C397.291 20.6692 396.781 27.9294 396.781 27.9294C396.781 27.9294 400.084 17.8519 398.311 12.8904C396.272 7.18594 390.782 2.00002 382 2C374.826 1.99998 368.238 6.66727 368.238 6.66727C368.238 6.66727 372.316 5.6301 378.942 6.66729C385.568 7.70448 388.728 9.77882 393.214 15.4833Z" fill="white"/>
<path d="M6.78641 15.5655C2.70873 20.7514 3.21854 28.0116 3.21854 28.0116C3.21854 28.0116 -0.0842489 17.9341 1.68921 12.9726C3.72822 7.26816 9.03232 2.08222 18 2.08222C24.8994 2.08222 31.762 6.74949 31.762 6.74949C31.762 6.74949 27.6845 5.71232 21.0583 6.74951C14.432 7.7867 11.2719 9.86105 6.78641 15.5655Z" fill="white"/>
<path d="M393.214 614.495C397.291 609.309 396.781 602.049 396.781 602.049C396.781 602.049 400.084 612.126 398.311 617.088C396.272 622.792 391 627.978 382 627.978C374 627.978 368.238 623.311 368.238 623.311C368.238 623.311 372.316 624.348 378.942 623.311C385.568 622.274 388.728 620.199 393.214 614.495Z" fill="white"/>
<path d="M6.95654 614.517C2.87886 609.331 3.38867 602.071 3.38867 602.071C3.38867 602.071 0.0858866 612.148 1.85934 617.11C3.89836 622.814 9 628 18.1701 628C26 628 31.9322 623.333 31.9322 623.333C31.9322 623.333 27.8546 624.37 21.2284 623.333C14.6022 622.296 11.442 620.221 6.95654 614.517Z" fill="white"/>
<line x1="40" y1="9" x2="360" y2="9" stroke="white" stroke-width="2"/>
<line x1="40" y1="619" x2="360" y2="619" stroke="white" stroke-width="2"/>
<line x1="5" y1="30" x2="5" y2="600" stroke="white" stroke-width="2"/>
<line x1="395" y1="30" x2="395" y2="600" stroke="white" stroke-width="2"/>
</svg>
