<svg width="1005" height="255" viewBox="0 0 1005 255" fill="none" xmlns="http://www.w3.org/2000/svg">
<path fill-rule="evenodd" clip-rule="evenodd" d="M502.3 248.508C562.443 248.508 610.756 201.811 610.756 144.74C610.756 87.6697 562.443 40.9719 502.3 40.9719C442.156 40.9719 393.843 87.6697 393.843 144.74C393.843 201.811 442.156 248.508 502.3 248.508ZM502.3 254.704C565.621 254.704 616.954 205.471 616.954 144.74C616.954 84.0091 565.621 34.7768 502.3 34.7768C438.978 34.7768 387.645 84.0091 387.645 144.74C387.645 205.471 438.978 254.704 502.3 254.704Z" fill="white"/>
<path d="M502.3 254.704C487.243 254.704 472.334 251.859 458.423 246.333C444.513 240.807 431.873 232.707 421.227 222.496C410.58 212.285 402.135 200.163 396.373 186.821C390.611 173.48 387.645 159.181 387.645 144.74C387.645 130.3 390.611 116 396.373 102.659C402.135 89.3175 410.58 77.1952 421.227 66.9842C431.873 56.7732 444.513 48.6733 458.423 43.1472C472.334 37.621 487.243 34.7768 502.3 34.7768V254.704Z" fill="white"/>
<path fill-rule="evenodd" clip-rule="evenodd" d="M460.712 240.576C471.98 245.052 483.945 247.673 496.102 248.339L496.102 41.1415C483.945 41.8072 471.98 44.4281 460.712 48.9043C447.535 54.1392 435.578 61.8059 425.518 71.4545C415.458 81.1026 407.492 92.5427 402.063 105.114C396.633 117.685 393.843 131.15 393.843 144.74C393.843 158.331 396.633 171.795 402.063 184.366C407.492 196.938 415.458 208.378 425.517 218.026C435.578 227.674 447.535 235.341 460.712 240.576ZM496.102 34.9375C498.164 34.8305 500.23 34.7768 502.3 34.7768V254.704C500.23 254.704 498.164 254.65 496.102 254.543C483.164 253.871 470.422 251.1 458.423 246.333C444.513 240.807 431.873 232.707 421.227 222.496C410.58 212.285 402.135 200.163 396.373 186.821C390.611 173.48 387.645 159.181 387.645 144.74C387.645 130.3 390.611 116 396.373 102.659C402.135 89.3175 410.58 77.1952 421.227 66.9842C431.873 56.7732 444.513 48.6733 458.423 43.1472C470.422 38.3805 483.164 35.6092 496.102 34.9375Z" fill="white"/>
<path d="M96.3613 67.3012C96.3613 93.8176 74.8571 115.313 48.3304 115.313C21.8037 115.313 0.299561 93.8176 0.299561 67.3012C0.299561 40.7848 21.8037 19.289 48.3304 19.289C74.8571 19.289 96.3613 40.7848 96.3613 67.3012Z" fill="white"/>
<path fill-rule="evenodd" clip-rule="evenodd" d="M48.3304 109.118C71.4343 109.118 90.1638 90.3961 90.1638 67.3012C90.1638 44.2062 71.4343 25.4841 48.3304 25.4841C25.2265 25.4841 6.49709 44.2062 6.49709 67.3012C6.49709 90.3961 25.2265 109.118 48.3304 109.118ZM48.3304 115.313C74.8571 115.313 96.3613 93.8176 96.3613 67.3012C96.3613 40.7848 74.8571 19.289 48.3304 19.289C21.8037 19.289 0.299561 40.7848 0.299561 67.3012C0.299561 93.8176 21.8037 115.313 48.3304 115.313Z" fill="white"/>
<path d="M1004.3 48.7158C1004.3 75.2322 982.795 96.728 956.269 96.728C929.742 96.728 908.238 75.2322 908.238 48.7158C908.238 22.1994 929.742 0.703613 956.269 0.703613C982.795 0.703613 1004.3 22.1994 1004.3 48.7158Z" fill="white"/>
<path fill-rule="evenodd" clip-rule="evenodd" d="M956.269 90.5329C979.373 90.5329 998.102 71.8107 998.102 48.7158C998.102 25.6209 979.373 6.89874 956.269 6.89874C933.165 6.89874 914.435 25.6209 914.435 48.7158C914.435 71.8107 933.165 90.5329 956.269 90.5329ZM956.269 96.728C982.795 96.728 1004.3 75.2322 1004.3 48.7158C1004.3 22.1994 982.795 0.703613 956.269 0.703613C929.742 0.703613 908.238 22.1994 908.238 48.7158C908.238 75.2322 929.742 96.728 956.269 96.728Z" fill="white"/>
<path fill-rule="evenodd" clip-rule="evenodd" d="M200.33 178.175C237.632 197.807 282.8 184.497 301.433 149.12C320.066 113.744 305.484 68.9864 268.182 49.3543C230.88 29.7221 185.712 43.0328 167.079 78.4089C148.446 113.785 163.028 158.543 200.33 178.175ZM197.443 183.657C237.572 204.777 286.586 190.607 306.917 152.007C327.249 113.406 311.199 64.993 271.069 43.8725C230.94 22.752 181.926 36.9223 161.595 75.5227C141.263 114.123 157.313 162.536 197.443 183.657Z" fill="white"/>
<path fill-rule="evenodd" clip-rule="evenodd" d="M209.237 37.2077C217.98 38.6505 226.674 41.5113 234.988 45.8868C275.118 67.0073 291.167 115.421 270.836 154.021C260.614 173.428 243.142 186.66 223.193 192.336C214.451 190.893 205.756 188.032 197.443 183.657C157.313 162.536 141.263 114.123 161.595 75.5227C171.817 56.1154 189.289 42.8837 209.237 37.2077Z" fill="white"/>
<path fill-rule="evenodd" clip-rule="evenodd" d="M209.6 43.5592C191.737 49.0018 176.235 61.0251 167.079 78.4089C148.446 113.785 163.028 158.543 200.33 178.175C207.614 182.009 215.2 184.584 222.831 185.984C240.693 180.542 256.196 168.519 265.352 151.135C283.985 115.759 269.402 71.0007 232.101 51.3685C224.817 47.5351 217.231 44.9597 209.6 43.5592ZM223.193 192.336C243.142 186.66 260.614 173.428 270.836 154.021C291.167 115.421 275.118 67.0073 234.988 45.8868C226.674 41.5113 217.98 38.6505 209.237 37.2077C189.289 42.8837 171.817 56.1154 161.595 75.5227C141.263 114.123 157.313 162.536 197.443 183.657C205.756 188.032 214.451 190.893 223.193 192.336Z" fill="white"/>
<path fill-rule="evenodd" clip-rule="evenodd" d="M810.17 174.706C774.877 197.753 728.658 188.741 706.784 155.27C684.91 121.8 695.223 75.8706 730.516 52.8236C765.808 29.7766 812.027 38.7883 833.902 72.2589C855.776 105.729 845.462 151.659 810.17 174.706ZM813.559 179.892C775.591 204.686 725.463 195.18 701.595 158.659C677.727 122.137 689.158 72.4314 727.126 47.6372C765.094 22.8429 815.222 32.3495 839.09 68.8707C862.958 105.392 851.528 155.098 813.559 179.892Z" fill="white"/>
<path fill-rule="evenodd" clip-rule="evenodd" d="M788.058 35.1974C779.49 37.4545 771.103 41.1189 763.237 46.2555C725.269 71.0497 713.838 120.756 737.706 157.277C749.706 175.639 768.345 187.172 788.738 190.95C797.306 188.693 805.694 185.029 813.559 179.892C851.528 155.098 862.958 105.392 839.09 68.8707C827.09 50.5088 808.452 38.9757 788.058 35.1974Z" fill="white"/>
<path fill-rule="evenodd" clip-rule="evenodd" d="M788.294 41.5548C806.589 45.2966 823.153 55.8115 833.902 72.2589C855.776 105.729 845.462 151.659 810.17 174.706C803.279 179.206 795.968 182.482 788.502 184.593C770.207 180.851 753.644 170.336 742.895 153.889C721.021 120.418 731.334 74.4889 766.627 51.4419C773.518 46.9417 780.829 43.6656 788.294 41.5548ZM788.738 190.95C768.345 187.172 749.706 175.639 737.706 157.277C713.838 120.756 725.269 71.0497 763.237 46.2555C771.103 41.1189 779.49 37.4545 788.058 35.1974C808.452 38.9757 827.09 50.5088 839.09 68.8707C862.958 105.392 851.528 155.098 813.559 179.892C805.694 185.029 797.306 188.693 788.738 190.95Z" fill="white"/>
</svg>
