<svg width="260" height="284" viewBox="0 0 260 284" fill="none" xmlns="http://www.w3.org/2000/svg">
<g filter="url(#filter0_i_320_716)">
<g filter="url(#filter1_f_320_716)">
<path d="M208 260C208 252.268 173.078 246 130 246C86.9218 246 52 252.268 52 260C52 267.732 86.9218 274 130 274C173.078 274 208 267.732 208 260Z" fill="#250B7A" fill-opacity="0.41"/>
</g>
<path d="M260 130C260 201.797 201.797 260 130 260C58.203 260 0 201.797 0 130C0 58.203 58.203 0 130 0C201.797 0 260 58.203 260 130Z" fill="url(#paint0_radial_320_716)"/>
<path d="M260 130C260 201.797 201.797 260 130 260C58.203 260 0 201.797 0 130C0 58.203 58.203 0 130 0C201.797 0 260 58.203 260 130Z" fill="url(#paint1_radial_320_716)"/>
<path d="M260 130C260 201.797 201.797 260 130 260C58.203 260 0 201.797 0 130C0 58.203 58.203 0 130 0C201.797 0 260 58.203 260 130Z" fill="url(#paint2_radial_320_716)"/>
<g filter="url(#filter2_i_320_716)">
<g filter="url(#filter3_d_320_716)">
<path d="M130 60L132.589 80.7117C135.667 105.33 154.575 124.989 179.055 129.021L185 130L179.055 130.979C154.575 135.011 135.667 154.67 132.589 179.288L130 200L127.411 179.288C124.333 154.67 105.425 135.011 80.9448 130.979L75 130L80.9448 129.021C105.425 124.989 124.333 105.33 127.411 80.7117L130 60Z" fill="black"/>
</g>
</g>
</g>
<defs>
<filter id="filter0_i_320_716" x="0" y="0" width="260" height="278" filterUnits="userSpaceOnUse" color-interpolation-filters="sRGB">
<feFlood flood-opacity="0" result="BackgroundImageFix"/>
<feBlend mode="normal" in="SourceGraphic" in2="BackgroundImageFix" result="shape"/>
<feColorMatrix in="SourceAlpha" type="matrix" values="0 0 0 0 0 0 0 0 0 0 0 0 0 0 0 0 0 0 127 0" result="hardAlpha"/>
<feOffset dy="4"/>
<feGaussianBlur stdDeviation="6.75"/>
<feComposite in2="hardAlpha" operator="arithmetic" k2="-1" k3="1"/>
<feColorMatrix type="matrix" values="0 0 0 0 0 0 0 0 0 0 0 0 0 0 0 0 0 0 0.25 0"/>
<feBlend mode="normal" in2="shape" result="effect1_innerShadow_320_716"/>
</filter>
<filter id="filter1_f_320_716" x="42.7" y="236.7" width="174.6" height="46.6" filterUnits="userSpaceOnUse" color-interpolation-filters="sRGB">
<feFlood flood-opacity="0" result="BackgroundImageFix"/>
<feBlend mode="normal" in="SourceGraphic" in2="BackgroundImageFix" result="shape"/>
<feGaussianBlur stdDeviation="4.65" result="effect1_foregroundBlur_320_716"/>
</filter>
<filter id="filter2_i_320_716" x="75" y="60" width="110" height="144" filterUnits="userSpaceOnUse" color-interpolation-filters="sRGB">
<feFlood flood-opacity="0" result="BackgroundImageFix"/>
<feBlend mode="normal" in="SourceGraphic" in2="BackgroundImageFix" result="shape"/>
<feColorMatrix in="SourceAlpha" type="matrix" values="0 0 0 0 0 0 0 0 0 0 0 0 0 0 0 0 0 0 127 0" result="hardAlpha"/>
<feOffset dy="4"/>
<feGaussianBlur stdDeviation="2"/>
<feComposite in2="hardAlpha" operator="arithmetic" k2="-1" k3="1"/>
<feColorMatrix type="matrix" values="0 0 0 0 0 0 0 0 0 0 0 0 0 0 0 0 0 0 0.25 0"/>
<feBlend mode="normal" in2="shape" result="effect1_innerShadow_320_716"/>
</filter>
<filter id="filter3_d_320_716" x="71" y="60" width="118" height="148" filterUnits="userSpaceOnUse" color-interpolation-filters="sRGB">
<feFlood flood-opacity="0" result="BackgroundImageFix"/>
<feColorMatrix in="SourceAlpha" type="matrix" values="0 0 0 0 0 0 0 0 0 0 0 0 0 0 0 0 0 0 127 0" result="hardAlpha"/>
<feOffset dy="4"/>
<feGaussianBlur stdDeviation="2"/>
<feComposite in2="hardAlpha" operator="out"/>
<feColorMatrix type="matrix" values="0 0 0 0 0 0 0 0 0 0 0 0 0 0 0 0 0 0 0.25 0"/>
<feBlend mode="normal" in2="BackgroundImageFix" result="effect1_dropShadow_320_716"/>
<feBlend mode="normal" in="SourceGraphic" in2="effect1_dropShadow_320_716" result="shape"/>
</filter>
<radialGradient id="paint0_radial_320_716" cx="0" cy="0" r="1" gradientUnits="userSpaceOnUse" gradientTransform="translate(147.68 101.4) rotate(114.341) scale(131.839)">
<stop offset="0.287354" stop-color="#6414B9"/>
<stop offset="1" stop-color="#21238D"/>
</radialGradient>
<radialGradient id="paint1_radial_320_716" cx="0" cy="0" r="1" gradientUnits="userSpaceOnUse" gradientTransform="translate(64.22 70.98) rotate(56.3847) scale(165.783)">
<stop stop-color="#C3E1FF"/>
<stop offset="1" stop-color="white" stop-opacity="0"/>
</radialGradient>
<radialGradient id="paint2_radial_320_716" cx="0" cy="0" r="1" gradientUnits="userSpaceOnUse" gradientTransform="translate(218.66 62.66) rotate(135.22) scale(95.6015)">
<stop stop-color="white"/>
<stop offset="1" stop-color="white" stop-opacity="0"/>
</radialGradient>
</defs>
</svg>
