<svg width="432" height="665" viewBox="0 0 432 665" fill="none" xmlns="http://www.w3.org/2000/svg">
<rect x="1" y="1" width="430" height="663" rx="15" stroke="#F0CEE2" stroke-width="2"/>
<path fill-rule="evenodd" clip-rule="evenodd" d="M46.8237 635.823C45.3431 636.608 43.7058 637.175 41.9492 637.474C33.3533 638.935 25.1562 633.403 23.6405 625.118C22.8135 620.598 24.1464 616.193 26.9246 612.885C21.1603 615.94 17.7733 622.288 18.9792 628.88C20.4949 637.164 28.692 642.696 37.2879 641.235C41.1938 640.571 44.5099 638.578 46.8237 635.823Z" fill="#F0CEE2"/>
<path fill-rule="evenodd" clip-rule="evenodd" d="M386.315 635.823C387.795 636.608 389.433 637.175 391.189 637.474C399.785 638.935 407.982 633.403 409.498 625.118C410.325 620.598 408.992 616.193 406.214 612.885C411.978 615.94 415.365 622.288 414.159 628.88C412.643 637.164 404.446 642.696 395.85 641.235C391.945 640.571 388.628 638.578 386.315 635.823Z" fill="#F0CEE2"/>
<path fill-rule="evenodd" clip-rule="evenodd" d="M26.567 54.9853C25.2955 53.9128 24.1823 52.624 23.2904 51.1353C18.9262 43.8501 21.5161 34.5345 29.0752 30.3284C33.1995 28.0335 37.951 27.7338 42.1263 29.1185C37.1761 24.943 29.8281 24.0468 23.8138 27.3933C16.2547 31.5994 13.6647 40.915 18.029 48.2002C20.012 51.5105 23.0897 53.8321 26.567 54.9853Z" fill="#F0CEE2"/>
<path fill-rule="evenodd" clip-rule="evenodd" d="M401.303 54.9853C402.575 53.9128 403.688 52.624 404.58 51.1353C408.944 43.8501 406.354 34.5345 398.795 30.3284C394.671 28.0335 389.919 27.7338 385.744 29.1185C390.694 24.943 398.042 24.0468 404.057 27.3933C411.616 31.5994 414.206 40.915 409.841 48.2002C407.858 51.5105 404.781 53.8321 401.303 54.9853Z" fill="#F0CEE2"/>
<path d="M47.9894 35.6835H385.149" stroke="#F0CEE2"/>
<line x1="47.9894" y1="632.772" x2="385.149" y2="632.772" stroke="#F0CEE2"/>
<line x1="16.4076" y1="601.794" x2="16.4076" y2="58.5295" stroke="#F0CEE2"/>
<line x1="416.784" y1="606.871" x2="416.784" y2="63.6064" stroke="#F0CEE2"/>
</svg>
