<svg width="836" height="839" viewBox="0 0 836 839" fill="none" xmlns="http://www.w3.org/2000/svg">
<path fill-rule="evenodd" clip-rule="evenodd" d="M416.077 760.113C611.343 760.113 769.637 601.777 769.637 406.459C769.637 211.141 611.343 52.805 416.077 52.805C220.81 52.805 62.5157 211.141 62.5157 406.459C62.5157 601.777 220.81 760.113 416.077 760.113ZM416.077 761.503C612.11 761.503 771.027 602.545 771.027 406.459C771.027 210.374 612.11 51.4154 416.077 51.4154C220.043 51.4154 61.1264 210.374 61.1264 406.459C61.1264 602.545 220.043 761.503 416.077 761.503Z" fill="#2C2031"/>
<path d="M215.011 183.962C215.011 218.793 186.783 247.029 151.961 247.029C117.14 247.029 88.9112 218.793 88.9112 183.962C88.9112 149.131 117.14 120.896 151.961 120.896C186.783 120.896 215.011 149.131 215.011 183.962Z" fill="#231C36"/>
<path d="M129.434 181.785C128.045 151.698 152.347 127.838 165.265 122.631C165.265 122.631 149.101 117.759 129.434 125.524C107.453 134.203 88.0174 152.855 88.9429 189.885C89.5214 213.029 112.08 239.635 129.434 244.135C154.422 250.616 165.265 245.293 165.265 245.293C153.504 237.964 130.822 211.872 129.434 181.785Z" fill="#3C305C"/>
<path d="M477.577 63.0665C477.577 97.8972 449.348 126.133 414.527 126.133C379.705 126.133 351.477 97.8972 351.477 63.0665C351.477 28.2359 379.705 0 414.527 0C449.348 0 477.577 28.2359 477.577 63.0665Z" fill="#231C36"/>
<path d="M215.011 643.921C215.011 678.752 186.783 706.988 151.961 706.988C117.14 706.988 88.9112 678.752 88.9112 643.921C88.9112 609.09 117.14 580.855 151.961 580.855C186.783 580.855 215.011 609.09 215.011 643.921Z" fill="#231C36"/>
<path d="M749.867 638.363C749.867 673.193 721.639 701.429 686.817 701.429C651.996 701.429 623.767 673.193 623.767 638.363C623.767 603.532 651.996 575.296 686.817 575.296C721.639 575.296 749.867 603.532 749.867 638.363Z" fill="#231C36"/>
<path d="M646.143 632.738C647.531 602.651 656.562 588.966 673.287 576.805C673.287 576.805 689.452 571.933 709.119 579.698C731.1 588.377 750.535 607.029 749.61 644.059C749.031 667.203 726.472 693.809 709.119 698.309C684.13 704.79 673.287 699.467 673.287 699.467C653.089 686.238 644.755 662.825 646.143 632.738Z" fill="#3C305C"/>
<path d="M193.799 638.296C192.41 608.21 183.379 594.524 166.654 582.364C166.654 582.364 150.49 577.491 130.823 585.257C108.842 593.935 89.4067 612.588 90.3322 649.618C90.9106 672.761 113.47 699.368 130.823 703.868C155.811 710.348 166.654 705.025 166.654 705.025C186.852 691.796 195.187 668.383 193.799 638.296Z" fill="#3C305C"/>
<path d="M480.355 775.933C480.355 810.764 452.127 839 417.305 839C382.484 839 354.255 810.764 354.255 775.933C354.255 741.103 382.484 712.867 417.305 712.867C452.127 712.867 480.355 741.103 480.355 775.933Z" fill="#3C305C"/>
<path d="M748.478 182.572C748.478 217.403 720.25 245.639 685.428 245.639C650.607 245.639 622.378 217.403 622.378 182.572C622.378 147.742 650.607 119.506 685.428 119.506C720.25 119.506 748.478 147.742 748.478 182.572Z" fill="#231C36"/>
<path d="M709.612 180.169C711 150.082 686.699 126.222 673.78 121.015C673.78 121.015 689.945 116.143 709.612 123.908C731.592 132.587 751.028 151.239 750.102 188.269C749.524 211.413 726.965 238.019 709.612 242.519C684.623 249 673.78 243.676 673.78 243.676C685.542 236.348 708.223 210.256 709.612 180.169Z" fill="#3C305C"/>
<path d="M126.1 414.636C126.1 449.467 97.8714 477.703 63.0499 477.703C28.2284 477.703 0 449.467 0 414.636C0 379.806 28.2284 351.57 63.0499 351.57C97.8714 351.57 126.1 379.806 126.1 414.636Z" fill="#231C36"/>
<path d="M63.0499 477.703C46.328 477.703 30.291 471.058 18.4669 459.231C6.64274 447.404 -4.65171e-07 431.363 0 414.636C4.65171e-07 397.91 6.64274 381.869 18.4669 370.042C30.291 358.214 46.328 351.57 63.0499 351.57V477.703Z" fill="#3C305C"/>
<path d="M834.611 406.299C834.611 441.129 806.382 469.365 771.561 469.365C736.739 469.365 708.511 441.129 708.511 406.299C708.511 371.468 736.739 343.232 771.561 343.232C806.382 343.232 834.611 371.468 834.611 406.299Z" fill="#231C36"/>
<path d="M772.95 470.755C789.672 470.755 805.709 464.11 817.533 452.283C829.357 440.456 836 424.415 836 407.688C836 390.962 829.357 374.921 817.533 363.094C805.709 351.266 789.672 344.622 772.95 344.622V470.755Z" fill="#3C305C"/>
</svg>
