<svg width="771" height="250" viewBox="0 0 771 250" fill="none" xmlns="http://www.w3.org/2000/svg">
<rect x="0.0234375" width="770" height="250" rx="12" fill="black"/>
<path d="M763.455 13.8544C767.533 19.0403 767.023 26.3005 767.023 26.3005C767.023 26.3005 770.326 16.223 768.553 11.2615C766.514 5.55708 761.024 0.371163 752.242 0.371141C745.068 0.371124 738.48 5.03841 738.48 5.03841C738.48 5.03841 742.557 4.00124 749.184 5.03843C755.81 6.07562 758.97 8.14996 763.455 13.8544Z" fill="white"/>
<path d="M6.66888 13.8163C2.5912 19.0022 3.10101 26.2624 3.10101 26.2624C3.10101 26.2624 -0.201742 16.1849 1.57172 11.2234C3.61073 5.51895 8.91483 0.333008 17.8825 0.333008C24.7819 0.333008 31.6445 5.00028 31.6445 5.00028C31.6445 5.00028 27.567 3.96311 20.9407 5.00029C14.3145 6.03748 11.1543 8.11183 6.66888 13.8163Z" fill="white"/>
<path d="M762.499 236.184C766.577 230.998 766.067 223.738 766.067 223.738C766.067 223.738 769.37 233.815 767.596 238.777C765.557 244.481 760.286 249.667 751.286 249.667C743.286 249.667 737.523 245 737.523 245C737.523 245 741.601 246.037 748.227 245C754.853 243.963 758.014 241.888 762.499 236.184Z" fill="white"/>
<path d="M5.62054 236.074C1.54286 230.889 2.05267 223.628 2.05267 223.628C2.05267 223.628 -1.25014 233.706 0.523315 238.667C2.56233 244.372 7.66397 249.558 16.8341 249.558C24.664 249.558 30.5961 244.89 30.5961 244.89C30.5961 244.89 26.5186 245.928 19.8924 244.89C13.2662 243.853 10.106 241.779 5.62054 236.074Z" fill="white"/>
<path d="M33.0234 4H737.024" stroke="white" stroke-width="2"/>
<path d="M32.0234 246H736.024" stroke="white" stroke-width="2"/>
<path d="M767.023 222V27" stroke="white" stroke-width="2"/>
<path d="M3.02344 222L3.02344 27" stroke="white" stroke-width="2"/>
</svg>
