<svg width="435" height="317" viewBox="0 0 435 317" fill="none" xmlns="http://www.w3.org/2000/svg">
<path d="M235.5 8L236.291 36.6559C236.586 47.3302 245.17 55.914 255.844 56.2088L284.5 57L255.844 57.7912C245.17 58.086 236.586 66.6698 236.291 77.3441L235.5 106L234.709 77.3441C234.414 66.6698 225.83 58.086 215.156 57.7912L186.5 57L215.156 56.2088C225.83 55.914 234.414 47.3302 234.709 36.6559L235.5 8Z" fill="white"/>
<path d="M166.5 207L167.211 232.732C167.475 242.317 175.183 250.025 184.768 250.289L210.5 251L184.768 251.711C175.183 251.975 167.475 259.683 167.211 269.268L166.5 295L165.789 269.268C165.525 259.683 157.817 251.975 148.232 251.711L122.5 251L148.232 250.289C157.817 250.025 165.525 242.317 165.789 232.732L166.5 207Z" fill="white"/>
<path d="M400.469 92.3895C409.441 117.26 397.47 147.312 370.246 175.903C343.068 204.446 300.902 231.278 250.179 249.577C199.455 267.877 149.871 274.145 110.73 269.528C71.5227 264.904 43.1221 249.417 34.1495 224.546C25.1769 199.675 37.1486 169.623 64.3726 141.032C91.5505 112.49 133.716 85.6577 184.44 67.3582C235.163 49.0588 284.748 42.7904 323.889 47.4072C363.096 52.0318 391.496 67.5188 400.469 92.3895Z" stroke="white" stroke-width="2"/>
</svg>
