<svg width="1280" height="832" viewBox="0 0 1280 832" fill="none" xmlns="http://www.w3.org/2000/svg">
<rect width="1280" height="832" fill="url(#paint0_linear_875_972)"/>
<path d="M836.148 210.844C836.148 223.055 829.028 234.76 815.987 245.474C802.95 256.186 784.054 265.854 760.661 273.983C713.879 290.24 649.218 300.305 577.771 300.305C506.325 300.305 441.664 290.24 394.882 273.983C371.489 265.854 352.593 256.186 339.556 245.474C326.515 234.76 319.395 223.055 319.395 210.844C319.395 198.641 326.507 187.537 339.539 177.722C352.572 167.907 371.464 159.432 394.86 152.496C441.646 138.627 506.313 130.953 577.771 130.953C649.23 130.953 713.897 138.627 760.683 152.496C784.079 159.432 802.971 167.907 816.004 177.722C829.036 187.537 836.148 198.641 836.148 210.844Z" stroke="white"/>
<path d="M894.527 229.382C894.527 245.659 885.848 261.223 870.025 275.437C854.202 289.651 831.278 302.475 802.909 313.254C746.173 334.812 667.759 348.156 581.121 348.156C494.483 348.156 416.069 334.812 359.333 313.254C330.964 302.475 308.04 289.651 292.217 275.437C276.395 261.223 267.715 245.659 267.715 229.382C267.715 213.113 276.388 198.346 292.201 185.324C308.018 172.299 330.938 161.059 359.31 151.863C416.049 133.472 494.47 123.297 581.121 123.297C667.772 123.297 746.193 133.472 802.932 151.863C831.304 161.059 854.224 172.299 870.041 185.324C885.855 198.346 894.527 213.113 894.527 229.382Z" stroke="white"/>
<ellipse cx="569.637" cy="348.656" rx="38.2812" ry="14.3555" fill="#D9D9D9"/>
<ellipse cx="394.5" cy="272.572" rx="24.8828" ry="9.0918" fill="#D9D9D9"/>
<path d="M207.4 292.67L209.442 298.474H233.083L213.957 302.356V308.994L194.831 305.111L175.705 308.994L190.316 302.356L171.19 298.474H194.831L207.4 292.67Z" fill="white"/>
<path d="M165.249 281.664L165.975 283.706H174.383L167.581 285.071V287.406L160.779 286.04L153.977 287.406L159.173 285.071L152.371 283.706H160.779L165.249 281.664Z" fill="white"/>
<path d="M1029.81 330.951L1027.77 336.755H1004.13L1023.25 340.638V347.275L1042.38 343.393L1061.51 347.275L1046.9 340.638L1066.02 336.755H1042.38L1029.81 330.951Z" fill="white"/>
<path d="M1071.96 319.945L1071.24 321.987H1062.83L1069.63 323.353V325.688L1076.43 324.322L1083.24 325.688L1078.04 323.353L1084.84 321.987H1076.43L1071.96 319.945Z" fill="white"/>
<path fill-rule="evenodd" clip-rule="evenodd" d="M42.6981 365.574C34.116 366.981 29.0733 369.903 30.8687 372.937C33.1254 376.751 45.3294 379.297 58.1273 378.625C63.9426 378.319 68.8798 377.402 72.3245 376.134C70.1203 376.495 67.6825 376.756 65.0672 376.894C52.2693 377.566 40.0652 375.02 37.8086 371.206C36.5774 369.125 38.5618 367.097 42.6981 365.574Z" fill="#D9D9D9"/>
<path fill-rule="evenodd" clip-rule="evenodd" d="M1236.3 369.162C1244.88 370.569 1249.93 373.491 1248.13 376.525C1245.87 380.339 1233.67 382.885 1220.87 382.213C1215.06 381.907 1210.12 380.99 1206.68 379.722C1208.88 380.083 1211.32 380.344 1213.93 380.482C1226.73 381.154 1238.93 378.608 1241.19 374.794C1242.42 372.713 1240.44 370.685 1236.3 369.162Z" fill="#D9D9D9"/>
<path fill-rule="evenodd" clip-rule="evenodd" d="M270.581 114.182C268.689 113.688 267.031 113.095 265.703 112.41C259.206 109.056 263.062 104.768 274.316 102.831C280.456 101.775 287.53 101.637 293.747 102.274C286.377 100.352 275.437 99.9396 266.482 101.48C255.228 103.416 251.372 107.705 257.87 111.058C260.822 112.582 265.404 113.651 270.581 114.182Z" fill="#D9D9D9"/>
<path d="M314.109 103.383L945.75 103.383" stroke="white"/>
<line x1="109.904" y1="377.913" x2="1173.23" y2="377.913" stroke="white"/>
<line y1="-0.5" x2="311.784" y2="-0.5" transform="matrix(0.630848 -0.775907 0.989033 0.147697 50.4293 362.524)" stroke="white"/>
<path fill-rule="evenodd" clip-rule="evenodd" d="M991.01 112.131C992.903 111.637 994.56 111.044 995.888 110.359C1002.39 107.005 998.53 102.717 987.275 100.78C981.135 99.7241 974.061 99.5861 967.844 100.224C975.215 98.3014 986.155 97.8888 995.109 99.4294C1006.36 101.366 1010.22 105.654 1003.72 109.008C1000.77 110.532 996.187 111.6 991.01 112.131Z" fill="#D9D9D9"/>
<line y1="-0.5" x2="311.784" y2="-0.5" transform="matrix(-0.630848 -0.775907 -0.989033 0.147697 1211.16 360.474)" stroke="white"/>
<defs>
<linearGradient id="paint0_linear_875_972" x1="640" y1="0" x2="640" y2="832" gradientUnits="userSpaceOnUse">
<stop stop-color="#342F57"/>
<stop offset="0.2" stop-color="#584770"/>
<stop offset="0.4" stop-color="#825776"/>
<stop offset="0.6" stop-color="#D17877"/>
<stop offset="0.8" stop-color="#F49D6C"/>
<stop offset="1" stop-color="#EA6248"/>
</linearGradient>
</defs>
</svg>
