<svg width="1280" height="832" viewBox="0 0 1280 832" fill="none" xmlns="http://www.w3.org/2000/svg">
<rect width="1280" height="832" fill="#0F0F0F"/>
<path d="M884.5 144C884.5 156.769 877.054 169.005 863.425 180.203C849.8 191.397 830.053 201.501 805.608 209.996C756.723 226.984 689.156 237.5 614.5 237.5C539.844 237.5 472.277 226.984 423.392 209.996C398.947 201.501 379.2 191.397 365.575 180.203C351.946 169.005 344.5 156.769 344.5 144C344.5 131.239 351.937 119.631 365.558 109.373C379.179 99.1149 398.922 90.2584 423.37 83.0113C472.259 68.519 539.832 60.5 614.5 60.5C689.168 60.5 756.741 68.519 805.63 83.0113C830.078 90.2584 849.821 99.1149 863.442 109.373C877.063 119.631 884.5 131.239 884.5 144Z" stroke="white"/>
<path d="M945.5 163.371C945.5 180.387 936.426 196.655 919.89 211.51C903.354 226.365 879.398 239.765 849.753 251.03C790.467 273.556 708.53 287.5 618 287.5C527.47 287.5 445.533 273.556 386.247 251.03C356.602 239.765 332.646 226.365 316.11 211.51C299.574 196.655 290.5 180.387 290.5 163.371C290.5 146.362 299.567 130.926 316.094 117.317C332.624 103.705 356.576 91.9589 386.223 82.3495C445.513 63.1321 527.457 52.5 618 52.5C708.543 52.5 790.487 63.1321 849.777 82.3495C879.424 91.9589 903.376 103.705 919.906 117.317C936.433 130.926 945.5 146.362 945.5 163.371Z" stroke="white"/>
<ellipse cx="606" cy="288" rx="40" ry="15" fill="#D9D9D9"/>
<ellipse cx="423" cy="208.5" rx="26" ry="9.5" fill="#D9D9D9"/>
<path d="M227.5 229.5L229.633 235.564H254.336L234.351 239.621V246.557L214.367 242.5L194.382 246.557L209.649 239.621L189.664 235.564H214.367L227.5 229.5Z" fill="white"/>
<path d="M183.456 218L184.215 220.133H193L185.893 221.56V224L178.785 222.573L171.678 224L177.107 221.56L170 220.133H178.785L183.456 218Z" fill="white"/>
<path d="M1086.84 269.5L1084.7 275.564H1060L1079.98 279.621V286.557L1099.97 282.5L1119.95 286.557L1104.69 279.621L1124.67 275.564H1099.97L1086.84 269.5Z" fill="white"/>
<path d="M1130.88 258L1130.12 260.133H1121.34L1128.44 261.56V264L1135.55 262.573L1142.66 264L1137.23 261.56L1144.34 260.133H1135.55L1130.88 258Z" fill="white"/>
<path fill-rule="evenodd" clip-rule="evenodd" d="M16.4029 311.678C7.4355 313.147 2.16636 316.201 4.04244 319.371C6.40037 323.356 19.1524 326.017 32.5249 325.314C38.6012 324.995 43.7601 324.036 47.3595 322.711C45.0563 323.089 42.5091 323.362 39.7763 323.505C26.4038 324.208 13.6518 321.547 11.2939 317.562C10.0074 315.388 12.0809 313.269 16.4029 311.678Z" fill="#D9D9D9"/>
<path fill-rule="evenodd" clip-rule="evenodd" d="M1263.6 315.427C1272.56 316.896 1277.83 319.95 1275.96 323.12C1273.6 327.105 1260.85 329.766 1247.48 329.063C1241.4 328.744 1236.24 327.785 1232.64 326.46C1234.94 326.838 1237.49 327.111 1240.22 327.254C1253.6 327.957 1266.35 325.296 1268.71 321.311C1269.99 319.137 1267.92 317.018 1263.6 315.427Z" fill="#D9D9D9"/>
<path fill-rule="evenodd" clip-rule="evenodd" d="M254.518 48.9982C252.54 48.4823 250.808 47.8624 249.42 47.1463C242.631 43.642 246.66 39.1611 258.42 37.138C264.836 36.0341 272.228 35.8899 278.723 36.556C271.022 34.5475 259.591 34.1164 250.235 35.7262C238.475 37.7494 234.446 42.2302 241.235 45.7345C244.32 47.3268 249.108 48.4434 254.518 48.9982Z" fill="#D9D9D9"/>
<path d="M300 37.7142L960 37.7143" stroke="white"/>
<line x1="86.6259" y1="324.593" x2="1197.7" y2="324.593" stroke="white"/>
<line y1="-0.5" x2="325.782" y2="-0.5" transform="matrix(0.630848 -0.775907 0.989033 0.147697 24.4812 308.491)" stroke="white"/>
<path fill-rule="evenodd" clip-rule="evenodd" d="M1007.29 46.8553C1009.27 46.3394 1011 45.7195 1012.39 45.0034C1019.18 41.4991 1015.15 37.0183 1003.39 34.9951C996.974 33.8912 989.582 33.747 983.086 34.4131C990.787 32.4047 1002.22 31.9736 1011.58 33.5833C1023.33 35.6065 1027.36 40.0873 1020.57 43.5916C1017.49 45.1839 1012.7 46.3006 1007.29 46.8553Z" fill="#D9D9D9"/>
<line y1="-0.5" x2="325.782" y2="-0.5" transform="matrix(-0.630848 -0.775907 -0.989033 0.147697 1237.33 306.348)" stroke="white"/>
</svg>
