<svg width="400" height="630" viewBox="0 0 400 630" fill="none" xmlns="http://www.w3.org/2000/svg">
<rect width="400" height="630" rx="12" fill="black"/>
<path d="M9.65269 17.5213C5.57499 22.7072 6.0848 29.9674 6.0848 29.9674C6.0848 29.9674 2.782 19.8899 4.55546 14.9284C6.59448 9.22397 11.9016 4.27186 20.8663 4.03805C28.0381 3.85101 34.6284 8.70535 34.6284 8.70535C34.6284 8.70535 30.5509 7.66817 23.9246 8.70535C17.2984 9.74253 14.1382 11.8169 9.65269 17.5213Z" fill="white"/>
<path d="M391.367 17.5213C395.445 22.7072 394.935 29.9674 394.935 29.9674C394.935 29.9674 398.238 19.8899 396.464 14.9284C394.425 9.22397 389.118 4.27186 380.153 4.03805C372.981 3.85101 366.391 8.70535 366.391 8.70535C366.391 8.70535 370.469 7.66817 377.095 8.70535C383.721 9.74253 386.881 11.8169 391.367 17.5213Z" fill="white"/>
<path d="M39.7576 7.26025H356.799" stroke="white"/>
<line x1="35.6802" y1="625.953" x2="361.896" y2="625.953" stroke="white"/>
<line x1="4.59717" y1="594.301" x2="4.59714" y2="35.2639" stroke="white"/>
<line x1="393.5" y1="598.297" x2="393.5" y2="32.0001" stroke="white"/>
<path d="M8.72236 612.479C4.60267 607.293 5.11773 600.033 5.11773 600.033C5.11773 600.033 1.78091 610.11 3.57264 615.072C5.63265 620.776 10.9945 625.728 20.0515 625.962C27.2971 626.149 33.9554 621.295 33.9554 621.295C33.9554 621.295 29.8358 622.332 23.1413 621.295C16.4468 620.257 13.254 618.183 8.72236 612.479Z" fill="white"/>
<path d="M391.278 612.479C395.398 607.293 394.883 600.033 394.883 600.033C394.883 600.033 398.219 610.11 396.428 615.072C394.368 620.776 389.006 625.728 379.949 625.962C372.703 626.149 366.045 621.295 366.045 621.295C366.045 621.295 370.165 622.332 376.859 621.295C383.554 620.257 386.746 618.183 391.278 612.479Z" fill="white"/>
</svg>
