<svg width="602" height="604" viewBox="0 0 602 604" fill="none" xmlns="http://www.w3.org/2000/svg">
<circle cx="299.5" cy="292.5" r="255" stroke="#2C2031"/>
<circle cx="109.385" cy="132.385" r="45.3845" fill="#231C36"/>
<path d="M93.1689 130.818C92.1696 109.167 109.662 91.9965 118.961 88.2491C118.961 88.2491 107.326 84.7429 93.1689 90.331C77.3467 96.5765 63.3567 109.999 64.0229 136.647C64.4392 153.302 80.6777 172.449 93.1689 175.687C111.156 180.35 118.961 176.52 118.961 176.52C110.495 171.246 94.1682 152.469 93.1689 130.818Z" fill="#3C305C"/>
<circle cx="298.385" cy="45.3845" r="45.3845" fill="#231C36"/>
<circle cx="109.385" cy="463.385" r="45.3845" fill="#231C36"/>
<circle cx="494.385" cy="459.385" r="45.3845" fill="#231C36"/>
<path d="M465.106 455.337C466.106 433.686 472.606 423.837 484.645 415.086C484.645 415.086 496.281 411.58 510.438 417.168C526.26 423.413 540.25 436.836 539.584 463.484C539.167 480.139 522.929 499.286 510.438 502.524C492.45 507.187 484.645 503.357 484.645 503.357C470.106 493.837 464.107 476.988 465.106 455.337Z" fill="#3C305C"/>
<path d="M139.5 459.337C138.501 437.686 132 427.837 119.961 419.086C119.961 419.086 108.326 415.58 94.1689 421.168C78.3467 427.413 64.3567 440.836 65.0229 467.484C65.4392 484.139 81.6777 503.286 94.1689 506.524C112.156 511.187 119.961 507.357 119.961 507.357C134.5 497.837 140.499 480.988 139.5 459.337Z" fill="#3C305C"/>
<circle cx="300.385" cy="558.385" r="45.3845" fill="#3C305C"/>
<circle cx="493.385" cy="131.385" r="45.3845" fill="#231C36"/>
<path d="M510.792 129.655C511.792 108.004 494.299 90.8334 485 87.086C485 87.086 496.636 83.5798 510.792 89.1679C526.615 95.4134 540.605 108.836 539.938 135.484C539.522 152.139 523.284 171.286 510.792 174.524C492.805 179.187 485 175.357 485 175.357C493.466 170.083 509.793 151.306 510.792 129.655Z" fill="#3C305C"/>
<circle cx="45.3845" cy="298.385" r="45.3845" fill="#231C36"/>
<path d="M45.3845 343.769C33.3478 343.769 21.8041 338.988 13.2928 330.476C4.78157 321.965 -3.34839e-07 310.421 0 298.385C3.34839e-07 286.348 4.78157 274.804 13.2928 266.293C21.8041 257.782 33.3478 253 45.3845 253V298.385L45.3845 343.769Z" fill="#3C305C"/>
<circle cx="555.385" cy="292.385" r="45.3845" fill="#231C36"/>
<path d="M556.385 338.769C568.421 338.769 579.965 333.988 588.476 325.476C596.988 316.965 601.769 305.421 601.769 293.385C601.769 281.348 596.988 269.804 588.476 261.293C579.965 252.782 568.421 248 556.385 248L556.385 293.385L556.385 338.769Z" fill="#3C305C"/>
</svg>
