<svg width="593" height="593" viewBox="0 0 593 593" fill="none" xmlns="http://www.w3.org/2000/svg">
<path d="M593 296.5C593 460.252 460.252 593 296.5 593C132.748 593 0 460.252 0 296.5C0 132.748 132.748 0 296.5 0C460.252 0 593 132.748 593 296.5Z" fill="url(#paint0_radial_320_723)"/>
<path d="M593 296.5C593 460.252 460.252 593 296.5 593C132.748 593 0 460.252 0 296.5C0 132.748 132.748 0 296.5 0C460.252 0 593 132.748 593 296.5Z" fill="url(#paint1_radial_320_723)"/>
<path d="M593 296.5C593 460.252 460.252 593 296.5 593C132.748 593 0 460.252 0 296.5C0 132.748 132.748 0 296.5 0C460.252 0 593 132.748 593 296.5Z" fill="url(#paint2_radial_320_723)"/>
<defs>
<radialGradient id="paint0_radial_320_723" cx="0" cy="0" r="1" gradientUnits="userSpaceOnUse" gradientTransform="translate(336.824 231.27) rotate(114.341) scale(300.695)">
<stop offset="0.287354" stop-color="#6414B9"/>
<stop offset="1" stop-color="#21238D"/>
</radialGradient>
<radialGradient id="paint1_radial_320_723" cx="0" cy="0" r="1" gradientUnits="userSpaceOnUse" gradientTransform="translate(146.471 161.889) rotate(56.3847) scale(378.114)">
<stop stop-color="#C3E1FF"/>
<stop offset="1" stop-color="white" stop-opacity="0"/>
</radialGradient>
<radialGradient id="paint2_radial_320_723" cx="0" cy="0" r="1" gradientUnits="userSpaceOnUse" gradientTransform="translate(498.713 142.913) rotate(135.22) scale(218.045)">
<stop stop-color="white"/>
<stop offset="1" stop-color="white" stop-opacity="0"/>
</radialGradient>
</defs>
</svg>
