<svg width="25" height="25" viewBox="0 0 25 25" fill="none" xmlns="http://www.w3.org/2000/svg">
<path fill-rule="evenodd" clip-rule="evenodd" d="M12.4734 22.9474C18.2577 22.9474 22.9468 18.2582 22.9468 12.4737C22.9468 6.68919 18.2577 2 12.4734 2C6.68915 2 2 6.68919 2 12.4737C2 18.2582 6.68915 22.9474 12.4734 22.9474ZM12.4734 24.9474C19.3623 24.9474 24.9468 19.3627 24.9468 12.4737C24.9468 5.58466 19.3623 0 12.4734 0C5.58454 0 0 5.58466 0 12.4737C0 19.3627 5.58454 24.9474 12.4734 24.9474Z" fill="white"/>
<path d="M12.5 24C9.45001 24 6.52494 22.7884 4.36827 20.6317C2.2116 18.4751 1 15.55 1 12.5C1 9.45001 2.2116 6.52494 4.36827 4.36827C6.52494 2.2116 9.45001 1 12.5 1L12.5 24Z" fill="white"/>
</svg>
