<svg width="602" height="604" viewBox="0 0 602 604" fill="none" xmlns="http://www.w3.org/2000/svg">
<circle cx="299.5" cy="292.5" r="255" stroke="#966A6A"/>
<circle cx="109.385" cy="132.385" r="45.3845" fill="#D0A8ED"/>
<path d="M93.1689 130.655C92.1696 109.004 109.662 91.8334 118.961 88.086C118.961 88.086 107.326 84.5798 93.1689 90.1679C77.3467 96.4134 63.3567 109.836 64.0229 136.484C64.4392 153.139 80.6777 172.286 93.1689 175.524C111.156 180.187 118.961 176.357 118.961 176.357C110.495 171.083 94.1682 152.306 93.1689 130.655Z" fill="#F0CEE2"/>
<circle cx="298.385" cy="45.3845" r="45.3845" fill="#D0A8ED"/>
<circle cx="109.385" cy="463.385" r="45.3845" fill="#D0A8ED"/>
<circle cx="494.385" cy="459.385" r="45.3845" fill="#D0A8ED"/>
<path d="M465.106 455.337C466.106 433.686 472.606 423.837 484.645 415.086C484.645 415.086 496.281 411.58 510.438 417.168C526.26 423.413 540.25 436.836 539.584 463.484C539.167 480.139 522.929 499.286 510.438 502.524C492.45 507.187 484.645 503.357 484.645 503.357C470.106 493.837 464.107 476.988 465.106 455.337Z" fill="#F0CEE2"/>
<path d="M139.5 459.337C138.501 437.686 132 427.837 119.961 419.086C119.961 419.086 108.326 415.58 94.1689 421.168C78.3467 427.413 64.3567 440.836 65.0229 467.484C65.4392 484.139 81.6777 503.286 94.1689 506.524C112.156 511.187 119.961 507.357 119.961 507.357C134.5 497.837 140.499 480.988 139.5 459.337Z" fill="#F0CEE2"/>
<circle cx="300.385" cy="558.385" r="45.3845" fill="#F0CEE2"/>
<circle cx="493.385" cy="131.385" r="45.3845" fill="#D0A8ED"/>
<path d="M510.792 129.655C511.791 108.003 494.299 90.8333 485 87.0859C485 87.0859 496.635 83.5797 510.792 89.1678C526.614 95.4133 540.604 108.836 539.938 135.484C539.522 152.139 523.283 171.286 510.792 174.524C492.805 179.187 485 175.357 485 175.357C493.466 170.083 509.793 151.306 510.792 129.655Z" fill="#F0CEE2"/>
<circle cx="45.3845" cy="298.221" r="45.3845" fill="#D0A8ED"/>
<path d="M45.3845 343.606C33.3478 343.606 21.8041 338.824 13.2928 330.313C4.78157 321.802 -3.34839e-07 310.258 0 298.221C3.34839e-07 286.185 4.78157 274.641 13.2928 266.13C21.8041 257.618 33.3478 252.837 45.3845 252.837V298.221L45.3845 343.606Z" fill="#F0CEE2"/>
<circle cx="555.385" cy="292.385" r="45.3845" fill="#D0A8ED"/>
<path d="M556.385 338.769C568.421 338.769 579.965 333.988 588.476 325.476C596.988 316.965 601.769 305.421 601.769 293.385C601.769 281.348 596.988 269.804 588.476 261.293C579.965 252.782 568.421 248 556.385 248L556.385 293.385L556.385 338.769Z" fill="#F0CEE2"/>
</svg>
