<svg width="25" height="25" viewBox="0 0 25 25" fill="none" xmlns="http://www.w3.org/2000/svg">
<path fill-rule="evenodd" clip-rule="evenodd" d="M12.4734 22.9474C18.2577 22.9474 22.9468 18.2582 22.9468 12.4737C22.9468 6.68919 18.2577 2 12.4734 2C6.68915 2 2 6.68919 2 12.4737C2 18.2582 6.68915 22.9474 12.4734 22.9474ZM12.4734 24.9474C19.3623 24.9474 24.9468 19.3627 24.9468 12.4737C24.9468 5.58466 19.3623 0 12.4734 0C5.58454 0 0 5.58466 0 12.4737C0 19.3627 5.58454 24.9474 12.4734 24.9474Z" fill="white"/>
<path fill-rule="evenodd" clip-rule="evenodd" d="M14.5869 2.16688C9.1543 3.07842 5.02579 7.61492 5.02579 13.074C5.02579 18.5331 9.1543 23.0696 14.5869 23.9812C13.9332 24.0909 13.2606 24.1481 12.574 24.1481C6.18187 24.1481 1 19.1901 1 13.074C1 6.95801 6.18187 2 12.574 2C13.2606 2 13.9332 2.0572 14.5869 2.16688Z" fill="white"/>
</svg>
